PathFileType	4	(X/Y/Z)	/Users/itak/Documents/Research/Walk-IL/dataset/trc/00130_00007.trc
DataRate	CameraRate	NumFrames	NumMarkers	Units	OrigDataRate	OrigDataStartFrame	OrigNumFrames
100.000000	100.000000	4	55	mm	100.000000	465	744
Frame#	Time	RPSI			LPSI			L3			STRN			T10			C7			CLAV			RBAK			LBAK			LSHO			LUPA			LAEL			LAOL			LWTS			LWPS			LFRA			LIFD			LHPS			LHTS			RSHO			RUPA			RAEL			RAOL			RWTS			RWPS			RFRA			RIFD			RHTS			RHPS			RBHD			LFHD			RFHD			LBHD			LHIP			RHIP			RASI			LASI			LKNE			LTHI			LANK			LTIP			LTOE			LMT1			LMT5			LHEE			RKNE			RTHI			RANK			RTIP			RTOE			RMT1			RMT5			RHEE			*53			*54			
		X1	Y1	Z1	X2	Y2	Z2	X3	Y3	Z3	X4	Y4	Z4	X5	Y5	Z5	X6	Y6	Z6	X7	Y7	Z7	X8	Y8	Z8	X9	Y9	Z9	X10	Y10	Z10	X11	Y11	Z11	X12	Y12	Z12	X13	Y13	Z13	X14	Y14	Z14	X15	Y15	Z15	X16	Y16	Z16	X17	Y17	Z17	X18	Y18	Z18	X19	Y19	Z19	X20	Y20	Z20	X21	Y21	Z21	X22	Y22	Z22	X23	Y23	Z23	X24	Y24	Z24	X25	Y25	Z25	X26	Y26	Z26	X27	Y27	Z27	X28	Y28	Z28	X29	Y29	Z29	X30	Y30	Z30	X31	Y31	Z31	X32	Y32	Z32	X33	Y33	Z33	X34	Y34	Z34	X35	Y35	Z35	X36	Y36	Z36	X37	Y37	Z37	X38	Y38	Z38	X39	Y39	Z39	X40	Y40	Z40	X41	Y41	Z41	X42	Y42	Z42	X43	Y43	Z43	X44	Y44	Z44	X45	Y45	Z45	X46	Y46	Z46	X47	Y47	Z47	X48	Y48	Z48	X49	Y49	Z49	X50	Y50	Z50	X51	Y51	Z51	X52	Y52	Z52	X53	Y53	Z53	X54	Y54	Z54	X55	Y55	Z55	

466	4.65	425.6474914550781	1090.731567382812	-303.8955688476562	513.8909912109375	1098.897705078125	-405.0278625488281	465.1680297851562	1129.194946289062	-357.4723510742188	623.2169189453125	1329.364379882812	-206.9555969238281	431.6483459472656	1277.800537109375	-359.5227661132812	454.0552673339844	1571.394165039062	-350.9944763183594	597.4029541015625	1464.025268554688	-234.2380218505859	358.3312683105469	1386.721313476562	-316.1195678710938	509.2476196289062	1552.443969726562	-435.7454223632812	619.5485229492188	1539.933227539062	-442.6507873535156	633.0256958007812	1410.479370117188	-519.9771728515625	632.6394653320312	1194.102294921875	-550.1248168945312	545.88037109375	1187.174926757812	-531.30712890625	678.1990966796875	925.9094848632812	-486.6022033691406	616.3590698242188	909.2493896484375	-549.1721801757812	638.8833618164062	1076.601440429688	-555.7261962890625	nan	nan	nan	633.8239135742188	830.616455078125	-541.5575561523438	686.8894653320312	834.6052856445312	-495.4429016113281	390.6737365722656	1551.006713867188	-172.1930694580078	341.12841796875	1476.173461914062	-131.4250946044922	338.66357421875	1178.723999023438	-113.9352264404297	388.7361755371094	1178.15966796875	-197.2529907226562	492.6235046386719	957.3529052734375	-32.3193244934082	417.5443115234375	931.1406860351562	-43.73619842529297	357.3982543945312	1107.87060546875	-82.78616333007812	551.1076049804688	770.5809326171875	-20.22158050537109	528.2384643554688	854.8617553710938	-4.225963592529297	459.2485046386719	835.95068359375	-16.35310363769531	439.5360107421875	1738.997314453125	-275.1683349609375	639.6555786132812	1807.859130859375	-217.231201171875	537.2774047851562	1796.267822265625	-137.8689117431641	540.032958984375	1755.165771484375	-362.4751586914062	666.4224853515625	1021.528259277344	-419.8978271484375	435.5249633789062	985.4342041015625	-135.222412109375	528.2944946289062	1062.767700195312	-113.2884216308594	707.109375	1082.186157226562	-312.1929931640625	808.2476806640625	554.4251708984375	-290.6437683105469	771.3947143554688	680.9435424804688	-366.7185668945312	910.9054565429688	42.34522247314453	-245.8614501953125	851.1928100585938	297.35595703125	-325.9644470214844	971.80615234375	123.8737106323242	-39.35163497924805	904.0362548828125	98.76852416992188	-82.34523773193359	989.5783081054688	73.55579376220703	-154.0288696289062	822.01953125	22.03295135498047	-269.6431579589844	464.7393798828125	502.9092407226562	-267.8964538574219	462.4305725097656	771.1220703125	-168.4787292480469	330.6762390136719	37.16399002075195	-460.6909484863281	429.5667114257812	372.8623046875	-306.29541015625	568.2376098632812	36.52573776245117	-420.4449157714844	522.828369140625	34.1672248840332	-480.7974853515625	445.4815368652344	39.83705902099609	-388.0191345214844	294.6502990722656	48.86773681640625	-525.89599609375	654.3548583984375	731.5243530273438	-470.1342468261719	nan	nan	nan	
467	4.66	434.0436096191406	1089.551025390625	-299.9073486328125	523.9462890625	1097.897216796875	-399.9686584472656	474.5155029296875	1128.167602539062	-353.2278137207031	630.6898193359375	1328.2978515625	-200.9914093017578	440.7782287597656	1276.905151367188	-355.6239929199219	463.2472229003906	1570.286254882812	-346.817138671875	605.043701171875	1463.026489257812	-228.4555511474609	367.3035888671875	1385.836791992188	-313.2216796875	519.3482055664062	1551.51123046875	-431.0638427734375	629.474365234375	1538.959350585938	-436.5453186035156	643.8843383789062	1409.345703125	-513.8645629882812	644.7894897460938	1193.140869140625	-544.160400390625	558.1090698242188	1186.165771484375	-526.0616455078125	690.9728393554688	925.1688232421875	-479.876708984375	630.0159912109375	908.4317016601562	-543.2734985351562	651.9493408203125	1075.963745117188	-549.7256469726562	nan	nan	nan	647.4028930664062	829.6248779296875	-535.2537231445312	700.41015625	833.9720458984375	-488.868896484375	397.0501098632812	1549.829956054688	-169.0699615478516	347.6875305175781	1475.177124023438	-128.3271789550781	344.242431640625	1177.531127929688	-112.1870346069336	395.2587890625	1177.289672851562	-194.4234008789062	495.5934448242188	954.734375	-29.16552925109863	420.4207458496094	929.816650390625	-42.01797103881836	362.2313537597656	1106.643432617188	-80.97440338134766	551.59814453125	767.09130859375	-17.2962760925293	529.9424438476562	851.7359619140625	-0.8945233821868896	460.5382080078125	833.6136474609375	-14.17504119873047	446.8118896484375	1737.706298828125	-271.8741760253906	646.7079467773438	1806.865478515625	-211.0724945068359	543.3260498046875	1795.314208984375	-133.4621887207031	548.0220947265625	1753.6083984375	-357.1091918945312	676.3258056640625	1020.460632324219	-413.6790771484375	442.7302551269531	984.5936889648438	-130.8919982910156	535.32421875	1061.771484375	-108.1303482055664	715.507080078125	1080.738037109375	-305.2281799316406	816.0220336914062	553.5418701171875	-281.0259704589844	780.2951049804688	679.5540161132812	-358.4353942871094	914.271240234375	38.99003982543945	-235.6764831542969	858.1295776367188	295.7938537597656	-316.013916015625	971.3655395507812	121.3130645751953	-28.6121997833252	904.1741943359375	96.47667694091797	-72.75234985351562	991.1976318359375	70.21239471435547	-142.3487701416016	826.0092163085938	20.71083068847656	-262.0352783203125	470.4442138671875	502.2234802246094	-264.1390991210938	468.6161193847656	770.4219970703125	-164.5319671630859	331.2807312011719	38.87164306640625	-460.6268310546875	433.3351440429688	372.4164428710938	-303.8316955566406	568.4763793945312	36.40851211547852	-420.3884582519531	522.9724731445312	34.41751480102539	-480.5394287109375	445.6653137207031	39.89801025390625	-387.9107666015625	294.8582763671875	51.85367584228516	-525.8718872070312	nan	nan	nan	nan	nan	nan	
468	4.67	442.8164367675781	1088.869384765625	-295.6472778320312	534.4077758789062	1097.077392578125	-394.6521606445312	484.165771484375	1126.878662109375	-348.6465148925781	638.0714721679688	1327.369384765625	-195.0320129394531	449.8977355957031	1275.500854492188	-351.3973083496094	472.1307373046875	1569.32373046875	-342.5444946289062	612.8938598632812	1462.051635742188	-222.7273101806641	375.5662841796875	1384.51904296875	-309.7750854492188	529.2471313476562	1550.3671875	-426.1046752929688	639.2466430664062	1538.062133789062	-430.1481018066406	655.1770629882812	1408.790283203125	-507.42626953125	657.486572265625	1192.44970703125	-537.8255615234375	570.4155883789062	1185.019775390625	-520.936279296875	703.6649169921875	924.2435913085938	-473.2546691894531	643.663330078125	907.8016357421875	-537.3745727539062	664.95654296875	1075.27587890625	-543.3279418945312	nan	nan	nan	661.4144897460938	829.391845703125	-529.394287109375	713.9724731445312	833.7135009765625	-482.4697875976562	403.8800964355469	1548.837158203125	-165.7864074707031	354.4897766113281	1473.946533203125	-125.3328094482422	349.5182189941406	1176.739379882812	-110.0286331176758	402.3980407714844	1176.231079101562	-191.4407043457031	498.2547607421875	952.233154296875	-25.93247604370117	422.9682006835938	928.1082153320312	-40.32355499267578	367.1707763671875	1105.282470703125	-80.84066009521484	552.6159057617188	764.1685180664062	-14.36590957641602	531.0740356445312	848.79833984375	1.930237650871277	462.3725280761719	831.3487548828125	-11.81951713562012	455.2663879394531	1736.720947265625	-268.0553894042969	653.6784057617188	1806.159912109375	-204.9249877929688	549.5325927734375	1794.565063476562	-128.1944122314453	556.9428100585938	1752.203735351562	-351.9425048828125	685.6555786132812	1019.241760253906	-406.6499633789062	449.0180969238281	983.9344482421875	-126.8544616699219	542.12646484375	1060.790161132812	-103.0414276123047	724.326416015625	1079.9755859375	-298.6589965820312	823.8969116210938	552.7704467773438	-271.2768249511719	789.1008911132812	678.58203125	-349.1774597167969	917.1243286132812	37.65855026245117	-229.4972686767578	863.74951171875	293.509033203125	-307.0552673339844	969.6100463867188	115.1068420410156	-19.21262359619141	903.244140625	91.53486633300781	-65.10569000244141	991.0645751953125	65.24607849121094	-133.5263977050781	828.3283081054688	21.7007999420166	-258.4446716308594	475.9403686523438	501.6129760742188	-260.4717102050781	475.1106872558594	769.7576904296875	-160.3721008300781	331.4728698730469	40.55524063110352	-460.6582641601562	437.2086791992188	372.1452026367188	-301.1708984375	568.41259765625	35.5738410949707	-419.8569946289062	523.22705078125	34.65073394775391	-480.1708679199219	445.85498046875	39.95994567871094	-387.7534790039062	295.7465515136719	54.62294387817383	-526.0559692382812	nan	nan	nan	nan	nan	nan	
469	4.68	451.4699096679688	1088.337768554688	-291.278076171875	545.5764770507812	1095.611328125	-388.7884216308594	492.2941284179688	1126.1435546875	-344.1731567382812	645.8624267578125	1326.536254882812	-188.9922790527344	458.6492004394531	1274.975708007812	-347.2238159179688	480.9487915039062	1568.570922851562	-338.3635864257812	620.57080078125	1461.175903320312	-216.9584045410156	384.6616821289062	1383.52392578125	-306.4437866210938	538.9339599609375	1549.418823242188	-421.2993469238281	649.037353515625	1537.257690429688	-424.1890869140625	666.4331665039062	1408.084350585938	-501.1396484375	670.31884765625	1192.235717773438	-531.4059448242188	582.3402099609375	1183.715576171875	-515.3768310546875	716.3009033203125	923.7827758789062	-466.6710205078125	657.069580078125	906.912109375	-531.0131225585938	677.6578369140625	1074.732299804688	-536.8719482421875	nan	nan	nan	675.8630981445312	829.1356201171875	-523.4149780273438	727.0792236328125	833.446044921875	-475.5403137207031	411.0602111816406	1547.94873046875	-162.0690612792969	360.9924621582031	1473.005981445312	-122.4062576293945	354.9710388183594	1175.911743164062	-107.8652191162109	408.8057250976562	1175.468017578125	-188.7061920166016	500.7142333984375	949.91064453125	-22.75371742248535	424.992919921875	924.871826171875	-40.81966400146484	371.7527770996094	1104.370483398438	-79.00487518310547	553.4176635742188	761.2932739257812	-11.52611541748047	532.3402099609375	846.012939453125	4.719123840332031	463.0906982421875	829.3285522460938	-9.890683174133301	461.2838134765625	1735.698486328125	-264.7879028320312	660.8446044921875	1805.425170898438	-198.7036437988281	555.88720703125	1793.857421875	-123.458984375	565.78076171875	1751.3232421875	-346.7575988769531	695.3746948242188	1018.399108886719	-399.8779602050781	456.3880310058594	983.1842041015625	-122.2304077148438	549.2593383789062	1059.884643554688	-97.62627410888672	733.2357177734375	1079.156005859375	-291.7532348632812	831.6842041015625	550.95751953125	-260.84814453125	797.4421997070312	677.7930908203125	-339.048095703125	918.78662109375	35.66438293457031	-226.3118133544922	867.8176879882812	291.9938659667969	-298.3182373046875	966.21484375	101.933952331543	-9.465275764465332	901.1994018554688	81.84259033203125	-59.23688125610352	989.9196166992188	57.7127685546875	-126.793586730957	830.410400390625	23.40724945068359	-257.9350280761719	481.7955627441406	500.791015625	-256.5520935058594	481.5910034179688	768.9255981445312	-156.09716796875	331.7350463867188	42.73257827758789	-460.4119262695312	441.4292602539062	371.9681701660156	-298.12353515625	568.2833251953125	34.81052017211914	-419.3132019042969	523.4253540039062	35.03015518188477	-479.9542236328125	446.1297912597656	39.98111343383789	-387.5088806152344	296.4245910644531	58.17351531982422	-525.7356567382812	nan	nan	nan	nan	nan	nan	
